<svg width="550" height="296" viewBox="0 0 550 296" fill="none" xmlns="http://www.w3.org/2000/svg">
<g clip-path="url(#clip0)">
<path d="M34.957 85.3887C37.5711 113.898 42.6987 179.751 42.6987 215.087C46.0165 219.303 41.6933 129.558 34.957 85.3887Z" fill="#E1E5EA"/>
<path d="M48.8317 212.979C39.3808 213.079 29.9299 214.083 20.6801 216.091C20.1774 216.191 19.6747 216.492 19.3731 216.894C19.0714 217.296 18.8703 217.797 18.8703 218.4C19.172 228.037 20.1774 237.573 21.8866 247.01C24.6012 261.867 32.4434 271.704 41.09 271.704H56.5734C65.2199 271.704 73.0622 261.766 75.7768 247.01C77.486 237.573 78.4914 227.936 78.793 218.4C78.793 217.898 78.6925 217.396 78.2903 216.894C77.9887 216.492 77.486 216.191 76.9833 216.091C67.7335 214.083 58.2826 213.079 48.8317 212.979Z" fill="#EAEFF4"/>
<path d="M40.6878 146.021C40.6878 146.021 24.5007 132.971 11.2292 150.539C-2.04228 168.106 1.57721 179.851 18.6693 174.933C35.7613 170.014 40.6878 156.06 40.6878 156.06" fill="#E1E5EA"/>
<path d="M38.1743 86.9947C38.1743 86.9947 24.9028 78.2611 16.1557 92.5159C7.40864 106.771 10.9276 115.504 23.4953 110.485C36.0629 105.466 38.8781 94.624 38.8781 94.624C38.8781 94.624 40.9895 89.1028 38.1743 86.9947Z" fill="#E1E5EA"/>
<path d="M58.1821 123.535C58.1821 123.535 69.8449 115.805 77.5866 128.454C85.3282 141.102 82.1109 148.631 71.0514 144.214C59.9918 139.797 57.5788 130.16 57.5788 130.16C57.5788 130.16 55.6685 125.342 58.1821 123.535Z" fill="#E1E5EA"/>
<path d="M60.6956 127.952C60.6956 127.952 47.1225 163.89 47.1225 212.979H48.2284C48.2284 212.979 48.0274 172.523 61.8015 127.952" fill="#E1E5EA"/>
<path opacity="0.45" d="M36.4651 145.419C36.4651 145.419 26.5115 146.022 21.6855 152.748C16.8596 159.473 12.5363 164.894 13.3406 164.693C14.1449 164.493 23.3947 150.639 28.2207 148.933C33.0467 147.126 37.6716 146.122 37.6716 146.122L36.4651 145.419Z" fill="#DADCE0"/>
<path d="M59.8913 122.632C59.8913 122.632 64.3151 124.238 68.7389 129.859C73.1627 135.381 74.6708 137.489 74.1681 135.983C73.6654 134.477 67.834 126.145 65.1194 124.439C62.4048 122.732 61.3994 122.029 61.3994 122.029L59.8913 122.632Z" fill="#DADCE0"/>
<path d="M33.2478 84.9873C33.2478 84.9873 28.0196 85.1881 24.6012 92.2151C21.1828 99.2421 20.7807 101.551 22.1882 99.2421C23.5958 97.0336 26.3104 87.0954 34.2532 85.2885L33.2478 84.9873Z" fill="#DADCE0"/>
<path d="M549.19 271.674H0.810455" stroke="#B8C0CC" stroke-width="1.88" stroke-miterlimit="10" stroke-linecap="round"/>
<path d="M495.002 48.9022L526.383 257.021C526.629 258.852 526.478 260.714 525.942 262.483C525.406 264.251 524.496 265.884 523.275 267.273C522.053 268.661 520.548 269.772 518.86 270.531C517.172 271.291 515.341 271.68 513.489 271.674H421.745L492.911 35.397L495.002 48.9022Z" fill="white" stroke="#B8C0CC" stroke-width="1.88" stroke-miterlimit="10" stroke-linecap="round"/>
<path d="M175.269 271.674H439.616C442.812 271.673 445.907 270.553 448.361 268.509C450.814 266.466 452.472 263.628 453.045 260.49L493.276 41.0011C493.709 38.6607 493.62 36.2539 493.017 33.9515C492.413 31.6491 491.309 29.5074 489.783 27.6783C488.257 25.8492 486.346 24.3776 484.187 23.3677C482.027 22.3579 479.671 21.8346 477.286 21.835H216.051C212.851 21.8351 209.753 22.9566 207.297 25.0037C204.841 27.0507 203.184 29.8934 202.614 33.0354L161.824 255.549C161.459 257.518 161.532 259.542 162.039 261.479C162.546 263.416 163.474 265.218 164.758 266.757C166.041 268.296 167.648 269.535 169.464 270.384C171.281 271.234 173.263 271.675 175.269 271.674Z" fill="white" stroke="#B8C0CC" stroke-width="1.88" stroke-miterlimit="10" stroke-linecap="round"/>
<path d="M447.307 22.0211C447.306 23.1131 447.447 24.2006 447.728 25.2559C448.278 27.3159 449.339 29.2044 450.813 30.7466C452.288 32.2888 454.129 33.4349 456.165 34.0788C457.215 34.4149 458.306 34.6081 459.407 34.653V32.2269C458.462 32.1736 457.529 31.9885 456.635 31.677C454.86 31.0624 453.289 29.9722 452.094 28.5258C450.898 27.0794 450.125 25.3326 449.858 23.4768C449.592 21.6209 449.842 19.7277 450.582 18.0044C451.322 16.2812 452.523 14.7944 454.054 13.707C455.584 12.6196 457.385 11.9736 459.259 11.8396C461.133 11.7057 463.008 12.0891 464.679 12.9477C466.349 13.8063 467.75 15.1071 468.729 16.7075C469.707 18.308 470.226 20.1463 470.227 22.0211H472.658C472.658 18.6666 471.323 15.4495 468.945 13.0776C466.568 10.7056 463.344 9.37305 459.983 9.37305C456.621 9.37305 453.397 10.7056 451.02 13.0776C448.642 15.4495 447.307 18.6666 447.307 22.0211Z" fill="#B8C0CC"/>
<path d="M456.068 33.3511C456.067 33.597 456.1 33.8419 456.165 34.0789C456.35 34.7559 456.786 35.3376 457.384 35.7062C457.982 36.0747 458.699 36.2026 459.388 36.0638C460.077 35.925 460.688 35.5299 461.096 34.9587C461.505 34.3874 461.68 33.6827 461.587 32.9871C461.494 32.2916 461.14 31.6573 460.596 31.2128C460.052 30.7683 459.359 30.5467 458.657 30.5929C457.955 30.6392 457.298 30.9499 456.817 31.462C456.336 31.9741 456.068 32.6494 456.068 33.3511Z" fill="#B8C0CC"/>
<path d="M401.881 22.0211C401.881 23.1125 402.02 24.1995 402.294 25.2559C402.843 27.3159 403.904 29.2044 405.379 30.7466C406.854 32.2888 408.695 33.4349 410.731 34.0788C411.781 34.415 412.871 34.6081 413.973 34.653V32.2269C413.031 32.1736 412.1 31.9885 411.209 31.677C409.727 31.1643 408.382 30.3187 407.279 29.2054C406.176 28.0921 405.344 26.7409 404.847 25.2559C404.493 24.2142 404.315 23.1211 404.32 22.0211C404.395 19.3609 405.507 16.8348 407.419 14.9797C409.332 13.1245 411.894 12.0867 414.561 12.0867C417.228 12.0867 419.789 13.1245 421.702 14.9797C423.614 16.8348 424.726 19.3609 424.801 22.0211H427.232C427.148 18.7231 425.777 15.5882 423.41 13.285C421.042 10.9819 417.867 9.69287 414.561 9.69287C411.254 9.69287 408.079 10.9819 405.712 13.285C403.344 15.5882 401.973 18.7231 401.889 22.0211H401.881Z" fill="#B8C0CC"/>
<path d="M410.634 33.3511C410.633 33.597 410.666 33.8419 410.731 34.0789C410.916 34.7559 411.351 35.3376 411.95 35.7062C412.548 36.0747 413.265 36.2026 413.954 36.0638C414.643 35.925 415.254 35.5299 415.662 34.9587C416.071 34.3874 416.246 33.6827 416.153 32.9871C416.06 32.2916 415.706 31.6573 415.162 31.2128C414.618 30.7683 413.925 30.5467 413.223 30.5929C412.521 30.6392 411.863 30.9499 411.383 31.462C410.902 31.9741 410.634 32.6494 410.634 33.3511Z" fill="#B8C0CC"/>
<path d="M356.439 22.0211C356.437 23.1131 356.579 24.2006 356.86 25.2559C357.409 27.3159 358.47 29.2044 359.945 30.7466C361.42 32.2888 363.261 33.4349 365.297 34.0788C366.347 34.415 367.437 34.6081 368.539 34.653V32.2269C367.596 32.1736 366.666 31.9885 365.775 31.677C363.999 31.0638 362.427 29.9745 361.23 28.5285C360.033 27.0826 359.258 25.3358 358.991 23.4796C358.723 21.6235 358.973 19.7296 359.712 18.0056C360.452 16.2816 361.652 14.794 363.183 13.7059C364.714 12.6178 366.515 11.9712 368.39 11.837C370.264 11.7027 372.14 12.0861 373.81 12.9449C375.481 13.8037 376.882 15.105 377.861 16.7059C378.84 18.3069 379.358 20.1458 379.358 22.0211H381.79C381.706 18.7231 380.334 15.5882 377.967 13.285C375.6 10.9819 372.425 9.69287 369.118 9.69287C365.812 9.69287 362.637 10.9819 360.269 13.285C357.902 15.5882 356.53 18.7231 356.447 22.0211H356.439Z" fill="#B8C0CC"/>
<path d="M365.192 33.3511C365.193 33.5974 365.229 33.8423 365.297 34.0789C365.486 34.7324 365.916 35.2901 366.501 35.6391C367.086 35.9882 367.782 36.1027 368.449 35.9595C369.115 35.8163 369.702 35.426 370.091 34.8676C370.481 34.3091 370.643 33.6241 370.545 32.951C370.448 32.2778 370.098 31.6666 369.566 31.2409C369.035 30.8151 368.361 30.6066 367.681 30.6574C367.002 30.7082 366.366 31.0146 365.904 31.5146C365.442 32.0145 365.188 32.6709 365.192 33.3511Z" fill="#B8C0CC"/>
<path d="M311.005 22.0211C311.003 23.1131 311.145 24.2006 311.426 25.2559C311.975 27.3159 313.036 29.2044 314.511 30.7466C315.986 32.2888 317.826 33.4349 319.863 34.0788C320.912 34.416 322.003 34.6092 323.105 34.653V32.2269C322.162 32.1736 321.232 31.9885 320.341 31.677C318.563 31.0664 316.988 29.979 315.789 28.534C314.589 27.0889 313.812 25.3422 313.542 23.4854C313.272 21.6286 313.52 19.7334 314.258 18.0079C314.997 16.2824 316.197 14.7932 317.728 13.7037C319.259 12.6141 321.061 11.9664 322.936 11.8316C324.812 11.6968 326.688 12.08 328.36 12.9393C330.031 13.7985 331.433 15.1007 332.412 16.7027C333.391 18.3048 333.908 20.1449 333.908 22.0211H336.339C336.256 18.7231 334.884 15.5882 332.517 13.285C330.15 10.9819 326.974 9.69287 323.668 9.69287C320.362 9.69287 317.186 10.9819 314.819 13.285C312.452 15.5882 311.08 18.7231 310.996 22.0211H311.005Z" fill="#B8C0CC"/>
<path d="M319.766 33.3511C319.764 33.597 319.797 33.8419 319.863 34.0789C320.047 34.7559 320.483 35.3376 321.081 35.7062C321.68 36.0747 322.396 36.2026 323.086 36.0638C323.775 35.925 324.386 35.5299 324.794 34.9587C325.202 34.3874 325.378 33.6827 325.285 32.9871C325.192 32.2916 324.837 31.6573 324.293 31.2128C323.749 30.7683 323.056 30.5467 322.355 30.5929C321.653 30.6392 320.995 30.9499 320.514 31.462C320.034 31.9741 319.766 32.6494 319.766 33.3511Z" fill="#B8C0CC"/>
<path d="M265.57 22.0211C265.569 23.1131 265.711 24.2006 265.992 25.2559C266.54 27.315 267.6 29.2029 269.073 30.745C270.546 32.2872 272.386 33.4338 274.421 34.0788C275.47 34.415 276.561 34.6081 277.662 34.653V32.2269C276.72 32.1744 275.789 31.9892 274.899 31.677C273.128 31.0571 271.561 29.9633 270.371 28.5151C269.181 27.0668 268.413 25.3199 268.151 23.4654C267.889 21.6109 268.142 19.7202 268.885 17.9999C269.627 16.2797 270.829 14.7962 272.359 13.7117C273.889 12.6271 275.689 11.9833 277.561 11.8505C279.433 11.7178 281.306 12.1013 282.974 12.9591C284.643 13.8168 286.043 15.1158 287.021 16.7141C288 18.3123 288.519 20.1483 288.522 22.0211H290.954C290.87 18.7231 289.498 15.5882 287.131 13.285C284.764 10.9819 281.589 9.69287 278.282 9.69287C274.976 9.69287 271.801 10.9819 269.433 13.285C267.066 15.5882 265.695 18.7231 265.611 22.0211H265.57Z" fill="#B8C0CC"/>
<path d="M274.323 33.3507C274.326 33.5963 274.359 33.8407 274.421 34.0785C274.587 34.6745 274.951 35.197 275.452 35.5614C275.953 35.9259 276.562 36.111 277.182 36.0869C277.802 36.0628 278.395 35.8308 278.866 35.4285C279.337 35.0262 279.659 34.4771 279.778 33.87C279.898 33.2629 279.809 32.6332 279.526 32.0829C279.242 31.5325 278.781 31.0936 278.217 30.8371C277.652 30.5807 277.018 30.5217 276.416 30.6696C275.814 30.8176 275.279 31.1638 274.899 31.6524C274.519 32.137 274.316 32.7359 274.323 33.3507Z" fill="#B8C0CC"/>
<path d="M220.136 22.0211C220.135 23.1131 220.277 24.2006 220.558 25.2559C221.106 27.315 222.166 29.2029 223.639 30.745C225.112 32.2872 226.951 33.4338 228.986 34.0788C230.036 34.415 231.127 34.6081 232.228 34.653V32.2269C231.286 32.1736 230.355 31.9885 229.465 31.677C227.688 31.0638 226.116 29.9745 224.919 28.5285C223.722 27.0826 222.948 25.3358 222.68 23.4796C222.412 21.6235 222.662 19.7296 223.401 18.0056C224.141 16.2816 225.342 14.794 226.872 13.7059C228.403 12.6178 230.204 11.9712 232.079 11.837C233.954 11.7027 235.829 12.0861 237.5 12.9449C239.17 13.8037 240.572 15.105 241.55 16.7059C242.529 18.3069 243.047 20.1458 243.048 22.0211H245.479C245.396 18.7231 244.024 15.5882 241.657 13.285C239.289 10.9819 236.114 9.69287 232.808 9.69287C229.501 9.69287 226.326 10.9819 223.959 13.285C221.591 15.5882 220.22 18.7231 220.136 22.0211Z" fill="#B8C0CC"/>
<path d="M228.889 33.3507C228.888 33.5966 228.921 33.8415 228.986 34.0785C229.153 34.6745 229.516 35.197 230.018 35.5614C230.519 35.9259 231.128 36.111 231.748 36.0869C232.368 36.0628 232.961 35.8308 233.432 35.4285C233.903 35.0262 234.225 34.4771 234.344 33.87C234.464 33.2629 234.375 32.6332 234.092 32.0829C233.808 31.5325 233.347 31.0936 232.783 30.8371C232.218 30.5807 231.584 30.5217 230.982 30.6696C230.38 30.8176 229.845 31.1638 229.465 31.6524C229.085 32.137 228.882 32.7359 228.889 33.3507Z" fill="#B8C0CC"/>
<path d="M319.012 147.353H333.786C334.66 147.319 335.499 146.997 336.169 146.436C336.839 145.876 337.304 145.109 337.49 144.256L340.343 129.513C340.437 129.139 340.443 128.748 340.36 128.371C340.277 127.994 340.108 127.642 339.865 127.341C339.622 127.041 339.313 126.801 338.961 126.64C338.609 126.48 338.225 126.403 337.839 126.416H323.056C322.183 126.452 321.346 126.776 320.676 127.336C320.006 127.896 319.541 128.662 319.352 129.513L316.507 144.256C316.411 144.63 316.404 145.022 316.486 145.399C316.569 145.777 316.738 146.13 316.981 146.431C317.224 146.732 317.535 146.972 317.887 147.132C318.24 147.292 318.625 147.368 319.012 147.353Z" fill="#EFEFEF"/>
<path d="M281.723 147.353H296.497C297.372 147.318 298.211 146.996 298.882 146.435C299.554 145.875 300.02 145.109 300.209 144.256L303.054 129.513C303.15 129.139 303.157 128.747 303.075 128.37C302.993 127.992 302.823 127.639 302.58 127.338C302.337 127.037 302.027 126.797 301.674 126.637C301.322 126.477 300.937 126.401 300.55 126.416H285.775C284.901 126.45 284.063 126.772 283.393 127.333C282.722 127.893 282.257 128.66 282.071 129.513L279.218 144.256C279.122 144.63 279.115 145.022 279.197 145.399C279.28 145.777 279.449 146.13 279.692 146.431C279.935 146.732 280.246 146.972 280.598 147.132C280.951 147.292 281.336 147.368 281.723 147.353Z" fill="#EFEFEF"/>
<path d="M244.434 147.353H259.216C260.09 147.317 260.926 146.993 261.596 146.433C262.266 145.873 262.731 145.107 262.92 144.256L265.765 129.513C265.861 129.139 265.868 128.747 265.786 128.37C265.704 127.992 265.534 127.639 265.291 127.338C265.048 127.037 264.738 126.797 264.385 126.637C264.033 126.477 263.648 126.401 263.261 126.416H248.486C247.612 126.451 246.775 126.774 246.105 127.334C245.435 127.895 244.97 128.661 244.782 129.513L241.929 144.256C241.835 144.63 241.829 145.021 241.912 145.398C241.995 145.775 242.164 146.127 242.407 146.428C242.65 146.728 242.96 146.968 243.311 147.129C243.663 147.289 244.047 147.366 244.434 147.353Z" fill="#EFEFEF"/>
<path d="M430.871 147.353H445.646C446.52 147.319 447.358 146.997 448.028 146.436C448.699 145.876 449.163 145.109 449.35 144.256L452.235 129.513C452.331 129.139 452.338 128.747 452.256 128.37C452.174 127.992 452.004 127.639 451.761 127.338C451.518 127.037 451.208 126.797 450.855 126.637C450.503 126.477 450.117 126.401 449.73 126.416H434.923C434.049 126.451 433.21 126.773 432.539 127.334C431.867 127.894 431.401 128.66 431.211 129.513L428.367 144.256C428.271 144.63 428.263 145.022 428.346 145.399C428.428 145.777 428.597 146.13 428.841 146.431C429.084 146.732 429.394 146.972 429.746 147.132C430.099 147.292 430.484 147.368 430.871 147.353Z" fill="#EFEFEF"/>
<path d="M447.064 103.093H453.418C453.798 103.083 454.164 102.946 454.458 102.704C454.752 102.462 454.956 102.13 455.039 101.759L456.263 95.4188C456.303 95.2581 456.305 95.0903 456.269 94.9285C456.234 94.7668 456.16 94.6156 456.056 94.4869C455.951 94.3582 455.818 94.2556 455.667 94.1872C455.516 94.1187 455.351 94.0863 455.185 94.0926H448.839C448.459 94.1028 448.094 94.2387 447.801 94.4788C447.507 94.7189 447.302 95.0496 447.218 95.4188L445.994 101.759C445.954 101.919 445.952 102.087 445.987 102.248C446.023 102.41 446.095 102.561 446.199 102.69C446.302 102.819 446.434 102.923 446.584 102.993C446.734 103.062 446.898 103.097 447.064 103.093Z" fill="#EFEFEF"/>
<path d="M393.582 147.353H408.365C409.238 147.317 410.075 146.993 410.744 146.433C411.414 145.873 411.88 145.107 412.069 144.256L414.954 129.513C415.05 129.139 415.057 128.747 414.975 128.37C414.893 127.992 414.723 127.639 414.48 127.338C414.237 127.037 413.927 126.797 413.574 126.637C413.222 126.477 412.836 126.401 412.449 126.416H397.634C396.76 126.45 395.922 126.772 395.252 127.333C394.581 127.893 394.117 128.66 393.93 129.513L391.078 144.256C390.983 144.63 390.977 145.021 391.06 145.398C391.143 145.775 391.313 146.127 391.556 146.428C391.798 146.728 392.108 146.968 392.459 147.129C392.811 147.289 393.195 147.366 393.582 147.353Z" fill="#EFEFEF"/>
<path d="M356.301 147.353H371.076C371.949 147.318 372.787 146.995 373.457 146.435C374.127 145.875 374.592 145.108 374.779 144.256L377.673 129.514C377.767 129.139 377.773 128.747 377.69 128.369C377.606 127.992 377.436 127.639 377.192 127.338C376.949 127.038 376.638 126.798 376.285 126.638C375.933 126.478 375.547 126.402 375.16 126.416H360.345C359.472 126.451 358.634 126.774 357.964 127.335C357.294 127.895 356.829 128.661 356.641 129.514L353.789 144.256C353.694 144.631 353.688 145.023 353.771 145.4C353.855 145.778 354.025 146.131 354.269 146.431C354.513 146.732 354.823 146.972 355.176 147.132C355.529 147.292 355.914 147.368 356.301 147.353Z" fill="#EFEFEF"/>
<path d="M207.153 147.353H221.927C222.801 147.318 223.638 146.995 224.308 146.435C224.979 145.875 225.444 145.108 225.631 144.256L228.484 129.514C228.579 129.139 228.584 128.747 228.501 128.369C228.418 127.992 228.247 127.639 228.004 127.338C227.76 127.038 227.449 126.798 227.097 126.638C226.744 126.478 226.359 126.402 225.971 126.416H211.197C210.324 126.453 209.487 126.776 208.817 127.336C208.147 127.897 207.682 128.662 207.493 129.514L204.64 144.256C204.546 144.631 204.54 145.023 204.623 145.4C204.707 145.778 204.877 146.131 205.121 146.431C205.364 146.732 205.675 146.972 206.028 147.132C206.38 147.292 206.765 147.368 207.153 147.353Z" fill="#EFEFEF"/>
<path d="M325.204 115.329H339.978C340.852 115.293 341.689 114.97 342.359 114.41C343.03 113.85 343.495 113.083 343.682 112.231L346.535 97.4887C346.63 97.1137 346.635 96.722 346.552 96.3445C346.469 95.9669 346.298 95.6139 346.055 95.3134C345.811 95.0129 345.5 94.7731 345.148 94.6131C344.795 94.453 344.41 94.3771 344.023 94.3913H329.248C328.374 94.4265 327.537 94.7495 326.867 95.3099C326.197 95.8703 325.732 96.6365 325.544 97.4887L322.691 112.231C322.597 112.606 322.591 112.998 322.674 113.375C322.758 113.753 322.928 114.106 323.172 114.407C323.415 114.707 323.726 114.947 324.079 115.107C324.431 115.267 324.817 115.343 325.204 115.329Z" fill="#EFEFEF"/>
<path d="M287.915 115.329H302.689C303.563 115.295 304.401 114.972 305.072 114.412C305.742 113.851 306.207 113.084 306.393 112.231L309.246 97.4887C309.342 97.1144 309.349 96.7228 309.267 96.3451C309.185 95.9675 309.015 95.6142 308.772 95.3134C308.529 95.0127 308.219 94.7727 307.866 94.6126C307.514 94.4525 307.129 94.3768 306.742 94.3914H291.967C291.092 94.4262 290.254 94.7489 289.582 95.3092C288.911 95.8695 288.444 96.6359 288.255 97.4887L285.41 112.231C285.314 112.606 285.307 112.997 285.389 113.375C285.471 113.753 285.641 114.106 285.884 114.407C286.127 114.707 286.437 114.947 286.79 115.107C287.142 115.267 287.528 115.343 287.915 115.329Z" fill="#EFEFEF"/>
<path d="M250.626 115.329H265.4C266.275 115.294 267.113 114.971 267.785 114.411C268.456 113.851 268.923 113.084 269.112 112.231L271.957 97.4887C272.053 97.1144 272.06 96.7228 271.978 96.3451C271.896 95.9675 271.726 95.6142 271.483 95.3134C271.24 95.0127 270.93 94.7727 270.577 94.6126C270.225 94.4525 269.839 94.3768 269.452 94.3914H254.678C253.804 94.4252 252.966 94.7477 252.295 95.3084C251.625 95.869 251.16 96.6359 250.974 97.4887L248.121 112.231C248.027 112.606 248.021 112.997 248.104 113.373C248.187 113.75 248.356 114.103 248.599 114.403C248.842 114.704 249.151 114.944 249.503 115.104C249.855 115.265 250.239 115.342 250.626 115.329Z" fill="#EFEFEF"/>
<path d="M213.345 115.329H228.119C228.993 115.293 229.83 114.97 230.5 114.41C231.17 113.85 231.636 113.083 231.823 112.231L234.676 97.4887C234.77 97.1137 234.776 96.722 234.693 96.3445C234.609 95.9669 234.439 95.6139 234.195 95.3134C233.952 95.0129 233.641 94.7731 233.288 94.6131C232.936 94.453 232.551 94.3771 232.163 94.3913H217.389C216.515 94.4265 215.678 94.7495 215.008 95.3099C214.337 95.8703 213.872 96.6365 213.685 97.4887L210.832 112.231C210.738 112.606 210.732 112.998 210.815 113.375C210.898 113.753 211.069 114.106 211.312 114.407C211.556 114.707 211.867 114.947 212.219 115.107C212.572 115.267 212.957 115.343 213.345 115.329Z" fill="#EFEFEF"/>
<path d="M312.447 181.294H327.23C328.103 181.258 328.94 180.934 329.61 180.374C330.279 179.814 330.745 179.049 330.934 178.197L333.778 163.455C333.874 163.08 333.882 162.689 333.799 162.311C333.717 161.933 333.548 161.58 333.305 161.279C333.061 160.978 332.751 160.739 332.399 160.578C332.046 160.418 331.661 160.343 331.274 160.357H316.499C315.625 160.391 314.787 160.714 314.117 161.274C313.447 161.835 312.982 162.602 312.796 163.455L309.943 178.197C309.848 178.571 309.842 178.962 309.925 179.339C310.008 179.716 310.178 180.069 310.421 180.369C310.664 180.669 310.973 180.909 311.325 181.07C311.676 181.231 312.061 181.307 312.447 181.294Z" fill="#EFEFEF"/>
<path d="M275.166 181.294H289.941C290.814 181.259 291.652 180.936 292.322 180.376C292.992 179.815 293.457 179.049 293.645 178.197L296.497 163.454C296.592 163.08 296.598 162.688 296.514 162.31C296.431 161.933 296.261 161.58 296.017 161.279C295.773 160.979 295.463 160.739 295.11 160.579C294.757 160.419 294.372 160.343 293.985 160.357H279.21C278.337 160.392 277.499 160.715 276.829 161.276C276.159 161.836 275.694 162.602 275.507 163.454L272.654 178.197C272.559 178.572 272.553 178.964 272.637 179.341C272.72 179.719 272.89 180.072 273.134 180.372C273.378 180.673 273.688 180.913 274.041 181.073C274.394 181.233 274.779 181.309 275.166 181.294Z" fill="#EFEFEF"/>
<path d="M237.877 181.295H252.652C253.526 181.261 254.364 180.938 255.034 180.378C255.705 179.817 256.169 179.05 256.355 178.197L259.208 163.455C259.303 163.08 259.309 162.689 259.226 162.313C259.143 161.936 258.973 161.583 258.73 161.283C258.487 160.982 258.178 160.742 257.826 160.582C257.475 160.421 257.09 160.344 256.704 160.357H241.921C241.048 160.394 240.211 160.717 239.541 161.278C238.872 161.838 238.406 162.603 238.217 163.455L235.373 178.197C235.277 178.572 235.269 178.963 235.352 179.341C235.434 179.719 235.603 180.072 235.846 180.373C236.09 180.673 236.4 180.913 236.752 181.073C237.105 181.233 237.49 181.309 237.877 181.295Z" fill="#EFEFEF"/>
<path d="M424.306 181.294H439.089C439.962 181.258 440.799 180.934 441.469 180.374C442.139 179.814 442.604 179.049 442.793 178.197L445.638 163.455C445.734 163.08 445.741 162.689 445.659 162.311C445.577 161.933 445.407 161.58 445.164 161.279C444.921 160.978 444.61 160.739 444.258 160.578C443.905 160.418 443.52 160.343 443.133 160.357H428.359C427.485 160.391 426.647 160.714 425.976 161.274C425.306 161.835 424.841 162.602 424.655 163.455L421.802 178.197C421.708 178.571 421.702 178.962 421.785 179.339C421.868 179.716 422.037 180.069 422.28 180.369C422.523 180.669 422.832 180.909 423.184 181.07C423.536 181.231 423.92 181.307 424.306 181.294Z" fill="#EFEFEF"/>
<path d="M387.025 181.294H401.8C402.674 181.259 403.511 180.936 404.181 180.376C404.851 179.815 405.316 179.049 405.504 178.197L408.357 163.454C408.451 163.08 408.457 162.688 408.374 162.31C408.29 161.933 408.12 161.58 407.876 161.279C407.632 160.979 407.322 160.739 406.969 160.579C406.617 160.419 406.231 160.343 405.844 160.357H391.07C390.196 160.392 389.359 160.715 388.688 161.276C388.018 161.836 387.553 162.602 387.366 163.454L384.513 178.197C384.418 178.572 384.412 178.964 384.496 179.341C384.579 179.719 384.75 180.072 384.993 180.372C385.237 180.673 385.548 180.913 385.9 181.073C386.253 181.233 386.638 181.309 387.025 181.294Z" fill="#EFEFEF"/>
<path d="M349.736 181.295H364.511C365.385 181.261 366.223 180.938 366.893 180.378C367.564 179.817 368.029 179.05 368.215 178.197L371.067 163.455C371.162 163.08 371.168 162.689 371.085 162.313C371.002 161.936 370.832 161.583 370.589 161.283C370.347 160.982 370.037 160.742 369.686 160.582C369.334 160.421 368.95 160.344 368.563 160.357H353.789C352.914 160.392 352.075 160.715 351.404 161.275C350.732 161.835 350.266 162.602 350.077 163.455L347.232 178.197C347.136 178.572 347.129 178.963 347.211 179.341C347.293 179.719 347.462 180.072 347.706 180.373C347.949 180.673 348.259 180.913 348.612 181.073C348.964 181.233 349.349 181.309 349.736 181.295Z" fill="#EFEFEF"/>
<path d="M200.588 181.294H215.363C216.237 181.26 217.076 180.937 217.747 180.377C218.419 179.816 218.885 179.05 219.074 178.197L221.919 163.455C222.015 163.08 222.023 162.689 221.94 162.311C221.858 161.933 221.689 161.58 221.445 161.279C221.202 160.978 220.892 160.739 220.54 160.578C220.187 160.418 219.802 160.343 219.415 160.357H204.64C203.766 160.391 202.928 160.714 202.258 161.274C201.587 161.835 201.123 162.602 200.936 163.455L198.084 178.197C197.987 178.572 197.98 178.963 198.062 179.341C198.145 179.718 198.314 180.072 198.557 180.372C198.801 180.673 199.111 180.913 199.463 181.073C199.816 181.233 200.201 181.309 200.588 181.294Z" fill="#EFEFEF"/>
<path d="M305.891 215.235H320.665C321.539 215.2 322.376 214.877 323.046 214.317C323.716 213.756 324.182 212.99 324.369 212.138L327.222 197.395C327.316 197.02 327.322 196.629 327.239 196.251C327.155 195.874 326.985 195.521 326.741 195.22C326.498 194.92 326.187 194.68 325.834 194.52C325.482 194.36 325.097 194.284 324.709 194.298H309.935C309.061 194.333 308.224 194.656 307.554 195.217C306.883 195.777 306.418 196.543 306.231 197.395L303.378 212.138C303.283 212.513 303.278 212.905 303.361 213.282C303.444 213.66 303.615 214.013 303.858 214.313C304.102 214.614 304.413 214.854 304.765 215.014C305.118 215.174 305.503 215.25 305.891 215.235Z" fill="#EFEFEF"/>
<path d="M268.601 215.235H283.376C284.25 215.202 285.088 214.879 285.759 214.319C286.429 213.758 286.894 212.991 287.08 212.138L289.933 197.395C290.029 197.021 290.036 196.63 289.954 196.252C289.872 195.874 289.702 195.521 289.459 195.22C289.216 194.919 288.906 194.679 288.553 194.519C288.2 194.359 287.815 194.284 287.428 194.298H272.654C271.779 194.333 270.941 194.656 270.269 195.216C269.598 195.776 269.131 196.543 268.942 197.395L266.097 212.138C266.001 212.512 265.994 212.904 266.076 213.282C266.158 213.659 266.328 214.013 266.571 214.313C266.814 214.614 267.124 214.854 267.477 215.014C267.829 215.174 268.214 215.25 268.601 215.235Z" fill="#EFEFEF"/>
<path d="M231.312 215.235H246.087C246.962 215.201 247.8 214.878 248.472 214.318C249.143 213.757 249.61 212.991 249.799 212.138L252.644 197.395C252.74 197.021 252.747 196.63 252.665 196.252C252.582 195.874 252.413 195.521 252.17 195.22C251.927 194.919 251.616 194.679 251.264 194.519C250.911 194.359 250.526 194.284 250.139 194.298H235.365C234.491 194.332 233.653 194.654 232.982 195.215C232.312 195.776 231.847 196.543 231.661 197.395L228.808 212.138C228.714 212.512 228.708 212.903 228.791 213.28C228.874 213.657 229.043 214.01 229.286 214.31C229.529 214.61 229.838 214.85 230.19 215.011C230.542 215.171 230.926 215.248 231.312 215.235Z" fill="#EFEFEF"/>
<path d="M417.75 215.235H432.524C433.398 215.2 434.235 214.877 434.905 214.317C435.576 213.757 436.041 212.99 436.228 212.138L439.081 197.396C439.175 197.021 439.181 196.63 439.098 196.253C439.015 195.877 438.846 195.524 438.603 195.224C438.36 194.923 438.051 194.683 437.699 194.523C437.347 194.362 436.963 194.285 436.577 194.298H421.794C420.921 194.335 420.084 194.658 419.414 195.218C418.744 195.779 418.279 196.544 418.09 197.396L415.245 212.138C415.149 212.513 415.142 212.904 415.224 213.282C415.307 213.659 415.476 214.013 415.719 214.313C415.962 214.614 416.273 214.854 416.625 215.014C416.978 215.174 417.363 215.25 417.75 215.235Z" fill="#EFEFEF"/>
<path d="M380.461 215.235H395.235C396.109 215.202 396.947 214.879 397.618 214.319C398.288 213.758 398.753 212.991 398.939 212.138L401.792 197.395C401.888 197.021 401.895 196.63 401.813 196.252C401.731 195.874 401.561 195.521 401.318 195.22C401.075 194.919 400.765 194.679 400.412 194.519C400.06 194.359 399.675 194.284 399.288 194.298H384.513C383.639 194.332 382.801 194.654 382.13 195.215C381.46 195.776 380.995 196.543 380.809 197.395L377.956 212.138C377.86 212.512 377.853 212.904 377.935 213.282C378.017 213.659 378.187 214.013 378.43 214.313C378.673 214.614 378.983 214.854 379.336 215.014C379.689 215.174 380.074 215.25 380.461 215.235Z" fill="#EFEFEF"/>
<path d="M343.172 215.235H357.954C358.828 215.199 359.664 214.875 360.334 214.315C361.004 213.755 361.469 212.99 361.658 212.138L364.503 197.395C364.599 197.021 364.606 196.63 364.524 196.252C364.442 195.874 364.272 195.521 364.029 195.22C363.786 194.919 363.476 194.679 363.123 194.519C362.771 194.359 362.385 194.284 361.998 194.298H347.224C346.35 194.332 345.512 194.654 344.841 195.215C344.171 195.776 343.706 196.543 343.52 197.395L340.667 212.138C340.573 212.512 340.567 212.903 340.65 213.28C340.733 213.657 340.902 214.01 341.145 214.31C341.388 214.61 341.697 214.85 342.049 215.011C342.401 215.171 342.785 215.248 343.172 215.235Z" fill="#EFEFEF"/>
<path d="M194.031 215.235H208.806C209.68 215.2 210.517 214.877 211.187 214.317C211.857 213.756 212.322 212.99 212.51 212.138L215.363 197.395C215.457 197.02 215.463 196.629 215.38 196.251C215.296 195.874 215.126 195.521 214.882 195.22C214.638 194.92 214.328 194.68 213.975 194.52C213.623 194.36 213.237 194.284 212.85 194.298H198.076C197.202 194.333 196.365 194.656 195.694 195.217C195.024 195.777 194.559 196.543 194.372 197.395L191.519 212.138C191.424 212.513 191.418 212.905 191.502 213.282C191.585 213.66 191.756 214.013 191.999 214.313C192.243 214.614 192.554 214.854 192.906 215.014C193.259 215.174 193.644 215.25 194.031 215.235Z" fill="#EFEFEF"/>
<path d="M299.699 247.26H314.457C315.331 247.226 316.169 246.904 316.84 246.343C317.51 245.782 317.975 245.015 318.161 244.163L321.014 229.42C321.108 229.046 321.114 228.655 321.031 228.278C320.948 227.901 320.779 227.548 320.536 227.248C320.293 226.948 319.983 226.708 319.632 226.547C319.28 226.387 318.896 226.31 318.509 226.323H303.743C302.87 226.359 302.033 226.683 301.363 227.243C300.693 227.803 300.228 228.568 300.039 229.42L297.194 244.163C297.098 244.537 297.091 244.929 297.173 245.306C297.255 245.684 297.425 246.037 297.668 246.338C297.911 246.639 298.222 246.879 298.574 247.039C298.927 247.199 299.312 247.275 299.699 247.26Z" fill="#EFEFEF"/>
<path d="M262.41 247.26H277.176C278.05 247.226 278.888 246.904 279.559 246.343C280.229 245.782 280.694 245.015 280.88 244.162L283.733 229.42C283.829 229.046 283.836 228.654 283.754 228.276C283.672 227.899 283.502 227.545 283.259 227.245C283.016 226.944 282.706 226.704 282.353 226.544C282 226.384 281.615 226.308 281.228 226.323H266.462C265.588 226.356 264.75 226.679 264.079 227.24C263.409 227.8 262.944 228.567 262.758 229.42L259.905 244.162C259.809 244.537 259.802 244.928 259.884 245.306C259.966 245.684 260.136 246.037 260.379 246.338C260.622 246.639 260.932 246.879 261.285 247.039C261.637 247.199 262.022 247.274 262.41 247.26Z" fill="#EFEFEF"/>
<path d="M225.12 247.26H239.895C240.768 247.223 241.605 246.9 242.275 246.34C242.945 245.779 243.41 245.014 243.599 244.163L246.444 229.42C246.54 229.046 246.547 228.654 246.465 228.276C246.382 227.899 246.213 227.545 245.97 227.245C245.727 226.944 245.416 226.704 245.064 226.544C244.711 226.384 244.326 226.308 243.939 226.323H229.173C228.299 226.356 227.461 226.679 226.79 227.24C226.12 227.8 225.655 228.567 225.469 229.42L222.616 244.163C222.522 244.537 222.516 244.928 222.599 245.305C222.682 245.682 222.851 246.034 223.094 246.334C223.337 246.635 223.646 246.875 223.998 247.035C224.35 247.196 224.734 247.273 225.12 247.26Z" fill="#EFEFEF"/>
<path d="M411.558 247.26H426.3C427.174 247.226 428.012 246.904 428.683 246.343C429.353 245.782 429.818 245.015 430.004 244.163L432.857 229.42C432.951 229.046 432.957 228.655 432.874 228.278C432.791 227.901 432.622 227.548 432.379 227.248C432.136 226.948 431.826 226.708 431.475 226.547C431.123 226.387 430.739 226.31 430.352 226.323H415.61C414.735 226.357 413.897 226.68 413.225 227.24C412.554 227.801 412.087 228.567 411.898 229.42L409.054 244.163C408.957 244.537 408.95 244.929 409.032 245.306C409.115 245.684 409.284 246.037 409.527 246.338C409.77 246.639 410.081 246.879 410.433 247.039C410.786 247.199 411.171 247.275 411.558 247.26Z" fill="#EFEFEF"/>
<path d="M374.269 247.26H389.019C389.894 247.225 390.732 246.902 391.404 246.342C392.075 245.782 392.542 245.015 392.731 244.162L395.576 229.42C395.672 229.046 395.679 228.654 395.597 228.276C395.515 227.899 395.345 227.545 395.102 227.245C394.859 226.944 394.548 226.704 394.196 226.544C393.843 226.384 393.458 226.308 393.071 226.323H378.321C377.447 226.356 376.609 226.679 375.939 227.24C375.268 227.8 374.803 228.567 374.617 229.42L371.764 244.162C371.668 244.537 371.661 244.928 371.743 245.306C371.826 245.684 371.995 246.037 372.238 246.338C372.481 246.639 372.792 246.879 373.144 247.039C373.497 247.199 373.882 247.274 374.269 247.26Z" fill="#EFEFEF"/>
<path d="M336.988 247.26H351.738C352.612 247.225 353.449 246.902 354.119 246.341C354.789 245.781 355.254 245.015 355.442 244.162L358.295 229.42C358.389 229.045 358.395 228.653 358.312 228.276C358.228 227.898 358.058 227.545 357.814 227.245C357.571 226.944 357.26 226.704 356.907 226.544C356.555 226.384 356.169 226.308 355.782 226.322H341.032C340.158 226.358 339.321 226.681 338.651 227.241C337.981 227.801 337.516 228.568 337.328 229.42L334.475 244.162C334.381 244.537 334.375 244.929 334.458 245.307C334.542 245.684 334.712 246.037 334.956 246.338C335.199 246.638 335.51 246.878 335.863 247.038C336.215 247.198 336.601 247.274 336.988 247.26Z" fill="#EFEFEF"/>
<path d="M402.278 97.2705H441.423C441.563 97.2748 441.702 97.2514 441.833 97.2015C441.963 97.1516 442.082 97.0763 442.183 96.9799C442.285 96.8836 442.365 96.7682 442.421 96.6403C442.477 96.5125 442.507 96.3749 442.509 96.2354C442.509 95.9566 442.398 95.6892 442.201 95.492C442.003 95.2949 441.735 95.1841 441.456 95.1841H402.311C402.033 95.1862 401.767 95.2979 401.571 95.4949C401.375 95.6918 401.265 95.958 401.265 96.2354C401.267 96.5052 401.374 96.7637 401.563 96.9567C401.751 97.1497 402.008 97.2622 402.278 97.2705Z" fill="#EFEFEF"/>
<path d="M401.087 102.001H440.232C440.51 102.001 440.777 101.892 440.974 101.696C441.171 101.501 441.283 101.235 441.285 100.958C441.285 100.679 441.174 100.412 440.977 100.215C440.779 100.017 440.511 99.9067 440.232 99.9067H401.087C400.809 99.9089 400.543 100.021 400.347 100.218C400.151 100.414 400.041 100.681 400.041 100.958C400.041 101.095 400.068 101.231 400.121 101.357C400.173 101.484 400.25 101.599 400.347 101.696C400.445 101.793 400.56 101.869 400.687 101.922C400.813 101.974 400.949 102.001 401.087 102.001Z" fill="#EFEFEF"/>
<path d="M48.2141 263.07V222.829C48.2109 213.427 50.0639 204.117 53.6675 195.43C57.271 186.743 62.5543 178.85 69.2157 172.2C75.8771 165.551 83.786 160.277 92.4907 156.678C101.195 153.079 110.525 151.227 119.948 151.227H120.985C130.405 151.227 139.734 153.079 148.437 156.677C157.14 160.274 165.048 165.548 171.708 172.195C178.369 178.843 183.652 186.734 187.255 195.42C190.859 204.105 192.712 213.413 192.71 222.813V223.856C192.711 233.257 190.856 242.565 187.251 251.25C183.646 259.935 178.361 267.826 171.699 274.472C165.037 281.118 157.128 286.39 148.423 289.985C139.719 293.58 130.389 295.429 120.969 295.426H68.4268C50.4914 295.459 48.3843 280.967 48.2141 263.07Z" fill="white"/>
<path d="M49.2839 222.862V284.735C49.3281 287.437 50.4279 290.015 52.3489 291.92C54.27 293.825 56.8605 294.906 59.5686 294.933H73.2004C70.4924 294.897 67.9054 293.808 65.9904 291.897C64.0754 289.986 62.9838 287.405 62.9482 284.703V222.862C62.9482 172.916 103.098 151.268 132.477 151.947C128.743 151.419 124.976 151.149 121.204 151.138C102.156 151.225 83.914 158.814 70.4453 172.254C56.9766 185.693 49.3713 203.896 49.2839 222.902V222.862Z" fill="#EAEFF4"/>
<path d="M48.4491 281.557V222.522C48.4534 203.541 56.0113 185.338 69.4612 171.916C82.9112 158.494 101.152 150.95 120.174 150.944H121.22C130.641 150.944 139.97 152.796 148.674 156.394C157.377 159.992 165.285 165.266 171.946 171.915C178.607 178.563 183.889 186.456 187.493 195.142C191.096 203.828 192.949 213.137 192.945 222.538V223.581C192.947 232.984 191.093 242.294 187.488 250.982C183.883 259.669 178.598 267.562 171.935 274.211C165.272 280.859 157.362 286.133 148.656 289.73C139.95 293.327 130.619 295.177 121.196 295.175H62.1134C58.4946 295.158 55.029 293.716 52.4701 291.163C49.9112 288.61 48.4661 285.152 48.4491 281.541V281.557Z" stroke="#EC008C" stroke-width="1.88" stroke-miterlimit="10"/>
<path d="M150.526 195.568C150.535 194.072 151.063 192.626 152.02 191.474C152.977 190.323 154.304 189.539 155.776 189.254C157.248 188.969 158.773 189.202 160.092 189.913C161.41 190.624 162.442 191.769 163.01 193.154C163.578 194.538 163.648 196.076 163.207 197.506C162.767 198.936 161.844 200.169 160.595 200.996C159.346 201.823 157.848 202.193 156.356 202.042C154.865 201.891 153.472 201.23 152.414 200.17C151.201 198.944 150.522 197.29 150.526 195.568Z" fill="#EC008C"/>
<path d="M244.539 202.903C245.453 203.811 246.022 205.007 246.15 206.288C246.277 207.568 245.954 208.853 245.236 209.922C244.622 210.836 243.75 211.547 242.732 211.968C241.71 212.389 240.586 212.499 239.502 212.285C238.418 212.07 237.421 211.541 236.637 210.763C235.859 209.985 235.329 208.995 235.113 207.917C234.891 206.831 235.001 205.704 235.429 204.682C235.783 203.837 236.339 203.091 237.049 202.511C237.76 201.931 238.602 201.535 239.502 201.357C240.403 201.178 241.333 201.224 242.211 201.489C243.09 201.755 243.889 202.232 244.539 202.878V202.903Z" fill="#EC008C"/>
<path d="M143.532 233.585C204.697 246.338 240.592 206.833 240.592 206.833" stroke="#EC008C" stroke-width="1.88" stroke-linecap="round" stroke-linejoin="round"/>
<path d="M509.647 236.949C509.647 236.949 531.757 235.752 531.781 231.288C531.781 227.803 518.279 230.754 518.279 230.754C518.279 230.754 533.07 226.468 539.91 222.967C541.451 222.287 542.831 221.293 543.962 220.047C545.008 218.729 545.47 216.812 544.619 215.349C543.468 213.375 540.704 213.222 538.435 213.489C529.325 214.589 522.931 219.449 514.729 223.557C520.655 220.523 526.149 216.716 531.068 212.235C535.671 208.135 541.02 204.286 544.084 198.811C546.005 195.374 546.766 190.303 543.371 187.489C539.975 184.675 535.347 186.033 531.724 187.303C521.923 190.792 513.542 197.398 507.873 206.105C509.317 202.073 510.438 197.933 511.228 193.724C511.552 192.026 511.674 189.939 510.263 188.928C508.448 187.626 506.009 189.373 504.59 191.104C501.154 195.318 498.552 200.145 496.923 205.329C498.042 193.748 499.144 181.941 496.623 170.555C496.161 167.941 495.138 165.459 493.625 163.277C492.004 161.166 489.402 159.646 486.752 159.937C484.248 160.212 482.181 161.983 480.495 163.859C475.018 169.976 471.901 177.839 471.702 186.04C471.503 194.241 474.235 202.245 479.409 208.62C476.712 205.795 473.674 203.315 470.365 201.237C469.627 200.768 468.533 200.364 467.974 201.043C467.733 201.428 467.649 201.891 467.739 202.337C468.249 207.844 471.945 212.462 475.487 216.715C471.844 212.558 467.285 209.299 462.168 207.194C457.051 205.09 451.515 204.197 445.994 204.585C444.665 204.69 443.158 204.981 442.477 206.13C442.134 206.826 442.02 207.613 442.153 208.378C442.736 213.901 447.623 217.904 452.421 220.71C456.473 223.08 460.712 225.053 464.959 227.026C462.544 226.68 460.098 226.593 457.665 226.768C457.386 226.753 457.106 226.796 456.844 226.893C456.582 226.991 456.343 227.141 456.141 227.334C455.501 228.142 456.409 229.307 457.26 229.93C463.474 234.368 471.051 236.491 478.672 235.93" fill="#E1E5EA"/>
<g style="mix-blend-mode:multiply" opacity="0.45">
<path d="M534.755 195.705C535.023 195.511 535.29 195.948 535.031 196.142C527.984 201.421 521.515 207.428 515.734 214.063C509.931 220.783 505.295 228.11 500.765 235.712C500.729 235.76 500.677 235.793 500.618 235.806C500.559 235.819 500.498 235.81 500.445 235.782C500.392 235.754 500.351 235.707 500.329 235.651C500.308 235.596 500.307 235.534 500.327 235.477C507.864 219.724 520.678 205.871 534.755 195.705ZM502.937 201.366C498.884 211.693 496.453 224.705 497.264 235.817C497.264 235.875 497.287 235.93 497.328 235.971C497.369 236.012 497.424 236.035 497.482 236.035C497.54 236.035 497.596 236.012 497.637 235.971C497.678 235.93 497.701 235.875 497.701 235.817C497.88 224.633 499.549 212.122 503.496 201.601C503.626 201.269 503.042 201.051 502.912 201.382L502.937 201.366ZM488.94 178.553C486.998 197.875 488.597 217.389 493.657 236.14C493.746 236.448 494.184 236.294 494.119 235.987C492.061 226.377 490.565 216.656 489.637 206.874C488.964 197.454 488.842 188.003 489.272 178.569C489.272 178.375 488.956 178.343 488.94 178.569V178.553ZM471.759 206.857C477.432 214.944 483.794 229.913 491.291 236.44C491.351 236.495 491.431 236.525 491.513 236.522C491.595 236.519 491.672 236.483 491.728 236.423C491.784 236.363 491.814 236.284 491.811 236.202C491.808 236.12 491.772 236.042 491.712 235.987C484.937 228.555 478.299 214.621 472.22 206.566C472.01 206.291 471.556 206.566 471.759 206.857ZM533.28 219.465C521.934 224.56 510.296 230.552 500.7 238.51C500.4 238.761 500.7 239.262 501.04 239.036C511.576 232.04 521.82 225.15 533.459 219.926C533.734 219.797 533.596 219.336 533.305 219.465H533.28ZM462.892 218.066C471.134 222.975 479.912 233.431 488.94 236.892C489.224 236.998 489.451 236.601 489.167 236.464C480.455 232.218 471.556 222.433 463.135 217.621C462.852 217.459 462.617 217.904 462.892 218.066Z" fill="#E1E5EA"/>
</g>
<path d="M518.028 235.599H476.775C474.846 235.599 473.282 237.159 473.282 239.084V272.362C473.282 274.287 474.846 275.848 476.775 275.848H518.028C519.957 275.848 521.521 274.287 521.521 272.362V239.084C521.521 237.159 519.957 235.599 518.028 235.599Z" fill="#EAEFF4"/>
</g>
<defs>
<clipPath id="clip0">
<rect width="550" height="296" fill="white"/>
</clipPath>
</defs>
</svg>
